<svg width="24" height="24" viewBox="0 0 24 24" fill="none" xmlns="http://www.w3.org/2000/svg">
<g clip-path="url(#clip0_2438_101564)">
<path d="M18.6836 9.81641H11.729C10.8755 9.81641 10.1836 10.4676 10.1836 11.271V17.8164C10.1836 18.6197 10.8755 19.271 11.729 19.271H18.6836C19.5371 19.271 20.229 18.6197 20.229 17.8164V11.271C20.229 10.4676 19.5371 9.81641 18.6836 9.81641Z" stroke="white" stroke-width="2" stroke-linecap="round" stroke-linejoin="round"/>
<path d="M7.09162 14.1811H6.31889C5.90901 14.1811 5.51592 14.0279 5.22609 13.7551C4.93626 13.4823 4.77344 13.1123 4.77344 12.7266V6.18111C4.77344 5.79534 4.93626 5.42537 5.22609 5.15259C5.51592 4.87981 5.90901 4.72656 6.31889 4.72656H13.2734C13.6833 4.72656 14.0764 4.87981 14.3662 5.15259C14.6561 5.42537 14.8189 5.79534 14.8189 6.18111V6.90838" stroke="white" stroke-width="2" stroke-linecap="round" stroke-linejoin="round"/>
</g>
<defs>
<clipPath id="clip0_2438_101564">
<rect width="17" height="16" fill="white" transform="translate(4 4)"/>
</clipPath>
</defs>
</svg>
