<svg width="24" height="24" viewBox="0 0 24 24" fill="none" xmlns="http://www.w3.org/2000/svg">
<g clip-path="url(#clip0_2718_21487)">
<path d="M6 7.27778C6 6.9074 6.13514 6.60184 6.40541 6.36111C6.67567 6.12037 7.02703 6 7.45946 6C7.88417 6 8.2278 6.11851 8.49035 6.35555C8.76061 6.6 8.89575 6.91851 8.89575 7.31111C8.89575 7.66666 8.76448 7.96295 8.50193 8.2C8.23166 8.44444 7.87645 8.56666 7.43629 8.56666H7.42471C7 8.56666 6.65637 8.44444 6.39382 8.2C6.13127 7.95555 6 7.64814 6 7.27778ZM6.15058 17V9.57777H8.72201V17H6.15058ZM10.1467 17H12.7181V12.8555C12.7181 12.5963 12.749 12.3963 12.8108 12.2555C12.9189 12.0037 13.083 11.7907 13.3031 11.6167C13.5232 11.4426 13.7992 11.3555 14.1313 11.3555C14.9961 11.3555 15.4286 11.9148 15.4286 13.0333V17H18V12.7444C18 11.6481 17.7297 10.8167 17.1892 10.25C16.6486 9.68333 15.9344 9.39999 15.0463 9.39999C14.0502 9.39999 13.2741 9.8111 12.7181 10.6333V10.6555H12.7066L12.7181 10.6333V9.57777H10.1467C10.1622 9.8148 10.1699 10.5518 10.1699 11.7889C10.1699 13.0259 10.1622 14.7629 10.1467 17Z" fill="white"/>
</g>
<defs>
<clipPath id="clip0_2718_21487">
<rect width="12" height="11" fill="white" transform="translate(6 6)"/>
</clipPath>
</defs>
</svg>
