<svg width="24" height="24" viewBox="0 0 24 24" fill="none" xmlns="http://www.w3.org/2000/svg">
<path d="M12.0012 10.7934L19.19 5.91875C18.901 5.68993 18.55 5.56505 18.1888 5.5625H5.81375C5.45248 5.56505 5.10152 5.68993 4.8125 5.91875L12.0012 10.7934Z" fill="white"/>
<path d="M12.3038 12.0006L12.2081 12.0481H12.1631C12.1113 12.0726 12.0563 12.0886 12 12.0956C11.9533 12.1018 11.9061 12.1018 11.8594 12.0956H11.8144L11.7188 12.0481L4.18125 6.90625C4.14524 7.04966 4.12634 7.19727 4.125 7.34562V15.6581C4.125 16.1305 4.30279 16.5836 4.61926 16.9177C4.93572 17.2517 5.36495 17.4394 5.8125 17.4394H18.1875C18.6351 17.4394 19.0643 17.2517 19.3807 16.9177C19.6972 16.5836 19.875 16.1305 19.875 15.6581V7.34562C19.8737 7.19727 19.8548 7.04966 19.8187 6.90625L12.3038 12.0006Z" fill="white"/>
</svg>
