<svg xmlns="http://www.w3.org/2000/svg" width="28" height="25" viewBox="0 0 28 25" id="payment"><g><path d="M25.42,19.67 C25.1438576,19.67 24.92,19.8938576 24.92,20.17 L24.92,22 C24.92,22.8284271 24.2484271,23.5 23.42,23.5 L3,23.5 C2.17157288,23.5 1.5,22.8284271 1.5,22 L1.5,6 C1.5,5.17157288 2.17157288,4.5 3,4.5 L7.91,4.5 C8.18614237,4.5 8.41,4.27614237 8.41,4 C8.41,3.72385763 8.18614237,3.5 7.91,3.5 L3,3.5 C1.61928813,3.5 0.5,4.61928813 0.5,6 L0.5,22 C0.5,23.3807119 1.61928813,24.5 3,24.5 L23.42,24.5 C24.7984352,24.4945191 25.9145191,23.3784352 25.92,22 L25.92,20.17 C25.92,19.8938576 25.6961424,19.67 25.42,19.67 Z"></path><path d="M26,11.31 L25.92,11.31 L25.92,6 C25.9145191,4.62156478 24.7984352,3.50548092 23.42,3.5 C23.1438576,3.5 22.92,3.72385763 22.92,4 C22.92,4.27614237 23.1438576,4.5 23.42,4.5 C24.2484271,4.5 24.92,5.17157288 24.92,6 L24.92,6.28 L24.36,6.28 L21.36,3.28 L19.18,1.1 C19.0861167,1.00534367 18.9583188,0.952100838 18.825,0.952100838 C18.6916812,0.952100838 18.5638833,1.00534367 18.47,1.1 L15.83,3.74 L13.18,1.1 C12.9821863,0.90821671 12.6678137,0.90821671 12.47,1.1 L7.29,6.28 L5.5,6.28 C5.22385763,6.28 5,6.50385763 5,6.78 C5,7.05614237 5.22385763,7.28 5.5,7.28 L24.92,7.28 L24.92,11.28 L22,11.28 C20.0670034,11.28 18.5,12.8470034 18.5,14.78 L18.5,15.16 C18.5,17.0929966 20.0670034,18.66 22,18.66 L26,18.66 C26.8284271,18.66 27.5,17.9884271 27.5,17.16 L27.5,12.81 C27.5,11.9815729 26.8284271,11.31 26,11.31 Z M18.83,2.16 L20.28,3.61 C19.4031054,4.19916775 18.2568946,4.19916775 17.38,3.61 L18.83,2.16 Z M16.67,4.32 C17.945453,5.29354535 19.714547,5.29354535 20.99,4.32 L22.99,6.32 L18.36,6.32 L16.53,4.45 L16.67,4.32 Z M10.87,6.32 L13.87,3.32 L14.57,4.02 L12.27,6.28 L10.87,6.32 Z M15.32,4.69 L17,6.28 L13.68,6.28 L15.32,4.69 Z M12.83,2.16 L13.2,2.53 L9.45,6.28 L8.71,6.28 L12.83,2.16 Z M26.5,17.16 C26.5,17.4361424 26.2761424,17.66 26,17.66 L22,17.66 C21.3369588,17.66 20.701074,17.3966079 20.232233,16.927767 C19.7633921,16.458926 19.5,15.8230412 19.5,15.16 L19.5,14.78 C19.5,13.3992881 20.6192881,12.28 22,12.28 L26,12.28 C26.2761424,12.28 26.5,12.5038576 26.5,12.78 L26.5,17.16 Z"></path><circle cx="22.08" cy="15" r="1"></circle></g></svg>