<svg width="24" height="24" viewBox="0 0 24 24" fill="none" xmlns="http://www.w3.org/2000/svg">
<g clip-path="url(#clip0_2438_101576)">
<path d="M5 9.74285C5 9.07099 5.15914 8.40392 5.47923 7.74325C5.79932 7.08258 6.25685 6.46831 6.85363 5.90362C7.45041 5.33893 8.23346 4.87982 9.20459 4.52789C10.1757 4.17596 11.2517 4 12.4326 4C14.3496 4 15.9229 4.5231 17.1526 5.56769C18.3823 6.61228 18.9972 7.84403 18.9972 9.26295C18.9972 11.0866 18.4764 12.5935 17.4329 13.782C16.3895 14.9706 15.0422 15.5657 13.3911 15.5657C12.8486 15.5657 12.3386 15.4537 11.863 15.2298C11.3874 15.0058 11.0528 14.7339 10.8593 14.4139L10.1359 16.9414C10.0762 17.1446 9.99668 17.3493 9.90083 17.5573C9.80498 17.7652 9.69829 17.9652 9.58435 18.1572C9.47042 18.3491 9.35468 18.5299 9.24075 18.7011C9.12682 18.8722 9.01108 19.0322 8.89715 19.181C8.78322 19.3297 8.68376 19.4561 8.59876 19.5569C8.51377 19.6577 8.43601 19.7456 8.36367 19.8208L8.25516 19.9488C8.21899 19.992 8.17017 20.008 8.11049 19.9968C8.05081 19.9856 8.01464 19.9536 8.00198 19.9008C8.00198 19.8896 7.99294 19.816 7.97486 19.6769C7.95677 19.5377 7.93869 19.3921 7.9206 19.237C7.90252 19.0818 7.88444 18.8818 7.86635 18.6371C7.84827 18.3923 7.84284 18.154 7.84827 17.9252C7.85369 17.6965 7.87178 17.4421 7.90252 17.1654C7.93326 16.8886 7.97847 16.6327 8.03815 16.3975C8.17017 15.8968 8.61685 14.2268 9.37639 11.3905C9.28054 11.2194 9.20097 11.0146 9.14129 10.7746C9.08161 10.5347 9.05087 10.3395 9.05087 10.1908L9.03279 9.95081C9.03279 9.26775 9.2281 8.69986 9.62052 8.24715C10.013 7.79444 10.4849 7.56729 11.0401 7.56729C11.4868 7.56729 11.8322 7.69846 12.08 7.95921C12.3277 8.21996 12.4507 8.54789 12.4507 8.94301C12.4507 9.18776 12.4001 9.4901 12.297 9.84683C12.1939 10.2036 12.0583 10.6147 11.8901 11.0786C11.7219 11.5425 11.6007 11.9184 11.5284 12.2064C11.4072 12.6863 11.5139 13.1022 11.8449 13.4541C12.1758 13.806 12.6189 13.982 13.1741 13.982C14.1271 13.982 14.9138 13.5053 15.5341 12.5503C16.1544 11.5953 16.4654 10.4419 16.4654 9.08698C16.4654 8.05199 16.0856 7.20736 15.3261 6.55149C14.5666 5.89562 13.505 5.56769 12.1433 5.56769C10.6242 5.56769 9.39085 5.9996 8.44505 6.86343C7.49924 7.72725 7.02543 8.76225 7.02543 9.96681C7.02543 10.6819 7.2551 11.2833 7.71264 11.7744C7.86997 11.9344 7.91699 12.1056 7.85731 12.2863C7.8338 12.3391 7.79763 12.4623 7.7488 12.6543C7.69998 12.8462 7.66381 12.9694 7.6403 13.0222C7.61679 13.139 7.5553 13.2174 7.45946 13.2541C7.36361 13.2909 7.2551 13.2893 7.13394 13.2461C6.42323 12.9902 5.88974 12.5503 5.53349 11.9264C5.17723 11.3025 5 10.5747 5 9.74285Z" fill="white"/>
</g>
<defs>
<clipPath id="clip0_2438_101576">
<rect width="14" height="16" fill="white" transform="translate(5 4)"/>
</clipPath>
</defs>
</svg>
