<svg width="37" height="28" viewBox="0 0 37 28" fill="none" xmlns="http://www.w3.org/2000/svg">
<g clip-path="url(#clip0_2362_128593)">
<path fill-rule="evenodd" clip-rule="evenodd" d="M36.621 19.164C36.369 18.388 35.932 17.677 35.324 17.034C34.687 16.362 33.85 15.842 32.812 15.466C31.773 15.093 30.439 14.904 28.795 14.904H26.564C26.83 12.158 27.808 9.821 29.5 7.889C31.189 5.963 33.531 4.268 36.525 2.814L34.709 0C30.767 1.679 27.394 4.135 24.592 7.379C21.791 10.626 20.396 13.843 20.396 17.034C20.396 20.462 21.205 23.151 22.836 25.092C24.467 27.033 26.803 28 29.84 28C31.767 28 33.441 27.357 34.865 26.072C36.287 24.789 37 23.286 37 21.572C37 20.745 36.875 19.94 36.621 19.164ZM16.225 19.164C15.971 18.388 15.535 17.677 14.926 17.034C14.291 16.362 13.453 15.842 12.414 15.466C11.377 15.093 10.043 14.904 8.39801 14.904H6.16602C6.43302 12.158 7.41001 9.821 9.10101 7.889C10.791 5.963 13.135 4.268 16.127 2.814L14.312 0C10.369 1.679 6.99801 4.135 4.19501 7.379C1.39401 10.626 0 13.843 0 17.034C0 20.462 0.806995 23.151 2.439 25.092C4.068 27.033 6.40402 28 9.44302 28C11.369 28 13.045 27.357 14.469 26.072C15.891 24.789 16.603 23.286 16.603 21.572C16.603 20.745 16.476 19.94 16.225 19.164Z" fill="#878687"/>
</g>
<defs>
<clipPath id="clip0_2362_128593">
<rect width="37" height="28" fill="white"/>
</clipPath>
</defs>
</svg>
