<svg width="24" height="24" viewBox="0 0 24 24" fill="none" xmlns="http://www.w3.org/2000/svg">
<g clip-path="url(#clip0_2438_101579)">
<path fill-rule="evenodd" clip-rule="evenodd" d="M17.8136 6.17983C16.4036 4.7749 14.5285 4.00079 12.5307 4C8.41443 4 5.06427 7.33415 5.06262 11.4324C5.06207 12.7424 5.40597 14.0211 6.05947 15.1483L5 19L8.95896 17.9664C10.0497 18.5585 11.2779 18.8706 12.5278 18.8711H12.5308C16.6467 18.8711 19.9972 15.5365 19.9989 11.4383C19.9996 9.45225 19.2236 7.58476 17.8136 6.17983ZM12.5308 17.6157H12.5283C11.4145 17.6153 10.322 17.3175 9.36904 16.7546L9.14236 16.6207L6.79309 17.2341L7.42017 14.9544L7.27256 14.7206C6.65122 13.737 6.32304 12.6001 6.32353 11.4328C6.32489 8.02656 9.10944 5.25536 12.5333 5.25536C14.1912 5.25599 15.7497 5.89944 16.9216 7.06717C18.0936 8.23489 18.7386 9.78708 18.738 11.4378C18.7365 14.8443 15.952 17.6157 12.5308 17.6157ZM15.9356 12.9889C15.749 12.8959 14.8316 12.4466 14.6605 12.3846C14.4895 12.3226 14.3651 12.2916 14.2407 12.4776C14.1163 12.6635 13.7587 13.0818 13.6498 13.2058C13.541 13.3297 13.4321 13.3452 13.2455 13.2523C13.0589 13.1593 12.4577 12.9632 11.7449 12.3305C11.1902 11.838 10.8157 11.2298 10.7068 11.0439C10.598 10.8579 10.6953 10.7574 10.7887 10.6648C10.8726 10.5816 10.9753 10.4479 11.0686 10.3395C11.1618 10.231 11.1929 10.1535 11.2551 10.0296C11.3173 9.90565 11.2863 9.79719 11.2396 9.70423C11.1929 9.61127 10.8198 8.69713 10.6643 8.32528C10.5128 7.96313 10.359 8.01213 10.2444 8.00646C10.1357 8.00107 10.0112 7.99992 9.88679 7.99992C9.76238 7.99992 9.56023 8.04641 9.38918 8.23232C9.21814 8.41826 8.73611 8.86757 8.73611 9.7817C8.73611 10.6958 9.40473 11.5789 9.49804 11.7029C9.59133 11.8269 10.8138 13.7028 12.6857 14.5073C13.1309 14.6986 13.4785 14.8129 13.7495 14.8985C14.1965 15.0398 14.6033 15.0199 14.9248 14.9721C15.2833 14.9187 16.0288 14.5228 16.1844 14.0889C16.3399 13.6551 16.3399 13.2833 16.2932 13.2058C16.2466 13.1283 16.1222 13.0818 15.9356 12.9889Z" fill="white"/>
</g>
<defs>
<clipPath id="clip0_2438_101579">
<rect width="15" height="15" fill="white" transform="translate(5 4)"/>
</clipPath>
</defs>
</svg>
