<svg width="239" height="128" viewBox="0 0 239 128" fill="none" xmlns="http://www.w3.org/2000/svg">
<path d="M24.6469 32.5C7.84692 57.7 2.64692 85.6667 2.14692 96.5C0.75726 106.9 9.5679 116.5 14.1469 120C25.3469 126.8 32.1469 124.5 34.1469 122.5C51.7469 109.3 57.4803 94.3333 58.1469 88.5C60.9469 73.7 56.9803 80.3333 54.6469 85.5C51.8469 91.9 39.8136 102.5 34.1469 107C19.7469 119.8 14.8136 112.333 14.1469 107C9.74692 97.4 20.6469 70.6667 26.6469 58.5C41.8469 24.5 53.9803 13.6667 58.1469 12.5C64.5469 9.3 64.4803 15.8333 63.6469 19.5C62.8469 22.7 57.3136 32.1667 54.6469 36.5C47.4469 44.5 53.9803 43.1667 58.1469 41.5C69.7469 36.7 71.6469 24.8333 71.1469 19.5C69.9469 5.5 60.6469 2 56.1469 2C46.5469 2 31.1469 22.3333 24.6469 32.5Z" fill="black" stroke="black"/>
<path d="M202.147 70.5C202.947 73.3 202.48 75.6667 202.147 76.5L204.647 81.5C201.447 93.1 203.647 104 205.147 108C210.347 114.4 216.647 111 219.147 108.5C224.347 105.3 233.98 87.5 238.147 79C239.347 71.4 236.98 73.8333 235.647 76L234.147 78L220.147 98.5C215.747 106.1 213.98 104 213.647 102V95C213.247 87 217.814 76 220.147 71.5C222.547 65.5 217.814 63.3333 215.147 63C211.147 62.6 208.147 66.5 207.147 68.5L204.647 69L202.147 70.5Z" fill="black" stroke="black"/>
<path d="M110.147 69.5C108.147 78.3 101.647 86.5 98.6469 89.5L100.647 94.5L106.147 87C105.747 88.6 108.314 91 109.647 92C114.047 92.4 116.48 89.1667 117.147 87.5L121.647 80.5L134.647 65L129.147 74C126.747 78 125.814 87.6667 125.647 92C128.447 98.4 134.147 100.333 136.647 100.5C141.847 101.3 147.48 92.1667 149.647 87.5C149.647 89.1 153.98 95.1667 156.147 98C160.547 101.2 162.98 101 163.647 100.5C168.447 98.1 172.647 92.1667 174.147 89.5V99C176.947 106.6 184.314 105.833 187.647 104.5C192.047 100.9 201.147 87 205.147 80.5L201.647 77C200.447 77.8 193.147 88 189.647 93C185.647 100.6 184.98 95.5 185.147 92C185.147 82 191.814 70.8333 195.147 66.5C199.147 58.1 201.48 65.6667 202.147 70.5L207.147 69L206.647 67C204.247 59 199.98 56.6667 198.147 56.5C188.547 56.5 179.814 70.1667 176.647 77C175.047 82.6 168.647 88.6667 165.647 91C159.247 96.6 158.647 90.6667 159.147 87C158.747 81.4 163.98 74 166.647 71C168.247 66.2 163.647 64.3333 161.147 64C155.547 63.6 153.147 71.1667 152.647 75C151.447 79.4 148.814 82.1667 147.647 83L138.647 91.5C135.047 95.5 133.814 91.8333 133.647 89.5C133.247 81.5 139.814 71.8333 143.147 68C146.347 65.2 146.814 60.8333 146.647 59C144.647 50.2 138.48 53.6667 135.647 56.5C132.447 59.3 123.314 72.3333 119.147 78.5C115.947 85.3 115.48 82 115.647 79.5L117.147 70C118.347 65.6 123.314 58.5 125.647 55.5C122.447 48.7 117.647 51 115.647 53L110.147 69.5Z" fill="black" stroke="black"/>
<path d="M87.1469 54.5C74.3469 60.5 68.4803 80 67.1469 89C65.9469 96.6 67.6469 103.833 68.6469 106.5C73.0469 112.5 80.1469 113 83.1469 112.5C88.3469 110.1 97.3136 99.1667 101.147 94L98.1469 90C84.1469 110 79.1469 106 77.6469 105.5C76.4469 105.1 77.8136 94 78.6469 88.5V84.5L82.1469 77C83.3469 71.4203 88.3136 64.0085 90.6469 61C94.6469 55 96.3136 58.1667 96.6469 60.5C97.4469 68.5 87.3136 76 82.1469 79L79.1469 84.5C102.747 76.5 104.98 63.5 103.147 58C98.7469 50.8 90.6469 52.6667 87.1469 54.5Z" fill="black" stroke="black"/>
<path d="M164.147 48.5L161.147 52.5H160.147V54V56V56.5C160.314 57 161.247 58 163.647 58H165.147L167.147 56.5L169.647 52.5L170.147 51L171.147 49L171.647 47L173.647 45L175.647 43C178.447 39.8 174.48 36 172.147 34.5C168.147 32.5 166.48 36 166.147 38V40L165.147 43V45L164.147 48.5Z" fill="black" stroke="black"/>
</svg>