<svg width="36" height="49" viewBox="0 0 36 49" fill="none" xmlns="http://www.w3.org/2000/svg">
<g clip-path="url(#clip0_1446_118643)">
<mask id="mask0_1446_118643" style="mask-type:luminance" maskUnits="userSpaceOnUse" x="0" y="0" width="36" height="49">
<path d="M36 0.849609H0V48.8496H36V0.849609Z" fill="white"/>
</mask>
<g mask="url(#mask0_1446_118643)">
<path fill-rule="evenodd" clip-rule="evenodd" d="M11.1761 4.27734C8.33574 4.27734 6.0332 6.57988 6.0332 9.4202V40.2773C6.0332 43.1177 8.33575 45.4202 11.1761 45.4202H31.0618C33.9021 45.4202 36.2047 43.1177 36.2047 40.2773V13.0932L32.2118 8.68551L28.2185 4.27734H11.1761Z" fill="#EDEEEF"/>
<path d="M36.2053 13.0976H30.7902C29.37 13.0976 28.2188 11.9463 28.2188 10.5262V4.28125L32.212 8.68942L36.2053 13.0976Z" fill="#CFD0D1"/>
<path d="M12 15.4199H29.5714" stroke="#CFD0D1" stroke-width="0.857143" stroke-linecap="round"/>
<path d="M12 22.2773H29.5714" stroke="#CFD0D1" stroke-width="0.857143" stroke-linecap="round"/>
<path d="M25.4057 26.8359H2.57143C1.15127 26.8359 0 27.9872 0 29.4074V36.3331C0 37.7532 1.15127 38.9045 2.57143 38.9045H25.4057C26.8259 38.9045 27.9771 37.7532 27.9771 36.3331V29.4074C27.9771 27.9872 26.8259 26.8359 25.4057 26.8359Z" fill="#FF3717"/>
<path d="M10.4184 32.4133L10.4175 32.4142C10.2675 32.5642 10.0655 32.6426 9.80232 32.6426H8.57472V30.9554H9.80232C10.0648 30.9554 10.2665 31.0358 10.4166 31.1905L10.4184 31.1923C10.5731 31.3425 10.6535 31.5441 10.6535 31.8066C10.6535 32.0635 10.5735 32.2628 10.4184 32.4133ZM15.6168 35.2659C15.9545 34.9663 16.1225 34.5676 16.1225 34.0799V31.7759C16.1225 31.2884 15.9552 30.8925 15.6172 30.5979C15.2803 30.2993 14.8334 30.1542 14.2857 30.1542H12.4271C12.3883 30.1542 12.3434 30.164 12.3089 30.1985C12.2743 30.2331 12.2646 30.2779 12.2646 30.3167V35.5391C12.2646 35.5779 12.2743 35.6228 12.3089 35.6573C12.3434 35.6919 12.3883 35.7016 12.4271 35.7016H14.2857C14.8332 35.7016 15.28 35.5592 15.6168 35.2659ZM14.9615 34.6499C14.8066 34.8093 14.5949 34.8927 14.3164 34.8927H13.1733V30.9631H14.3164C14.5997 30.9631 14.8135 31.0488 14.9683 31.2127L14.97 31.2145C15.1298 31.3743 15.2137 31.5939 15.2137 31.8834V33.9717C15.2087 34.2613 15.1224 34.4844 14.9615 34.6499ZM10.7651 30.3567C10.515 30.2157 10.2265 30.1465 9.90209 30.1465H7.82853C7.78971 30.1465 7.74486 30.1563 7.71031 30.1908C7.67577 30.2253 7.66602 30.2703 7.66602 30.309V35.5391C7.66602 35.5779 7.67577 35.6228 7.71031 35.6573C7.74486 35.6919 7.78971 35.7016 7.82853 35.7016H8.41221C8.45102 35.7016 8.49587 35.6919 8.53042 35.6573C8.56496 35.6228 8.57472 35.5779 8.57472 35.5391V33.413H9.8714C10.2005 33.413 10.4936 33.3466 10.7484 33.2111C11.0079 33.0759 11.2095 32.8856 11.3511 32.6406C11.4928 32.3952 11.5622 32.1111 11.5622 31.7913C11.5622 31.4716 11.4929 31.1855 11.3519 30.9357C11.2158 30.6857 11.0196 30.4923 10.7651 30.3567ZM20.5845 30.9631C20.6233 30.9631 20.6682 30.9533 20.7028 30.9188C20.7373 30.8842 20.747 30.8394 20.747 30.8006V30.3167C20.747 30.2779 20.7373 30.2331 20.7028 30.1985C20.6682 30.164 20.6233 30.1542 20.5845 30.1542H17.1746C17.1358 30.1542 17.0909 30.164 17.0564 30.1985C17.0219 30.2331 17.0121 30.2779 17.0121 30.3167V35.5391C17.0121 35.5779 17.0219 35.6228 17.0564 35.6573C17.0909 35.6919 17.1358 35.7016 17.1746 35.7016H17.7583C17.7971 35.7016 17.842 35.6919 17.8765 35.6573C17.9111 35.6228 17.9208 35.5779 17.9208 35.5391V33.3131H19.7321C19.7709 33.3131 19.8157 33.3034 19.8503 33.2689C19.8848 33.2343 19.8946 33.1894 19.8946 33.1506V32.6668C19.8946 32.628 19.8848 32.5832 19.8503 32.5486C19.8157 32.5141 19.7709 32.5043 19.7321 32.5043H17.9208V30.9631H20.5845Z" fill="white" stroke="white" stroke-width="0.171429"/>
</g>
</g>
<defs>
<clipPath id="clip0_1446_118643">
<rect width="36" height="48" fill="white" transform="translate(0 0.849609)"/>
</clipPath>
</defs>
</svg>
